<svg xmlns="http://www.w3.org/2000/svg" viewBox="0 0 450 400" fill="none">
  <!-- SC-01 district boundary from US Census GeoJSON -->
  <rect width="450" height="400" rx="12" fill="#F0F4F8" />
  <path d="M 34.1,324.6 L 37.2,322.0 L 39.4,318.5 L 38.3,315.9 L 38.9,312.4 L 36.9,310.0 L 40.1,308.3 L 41.4,308.4 L 51.8,309.9 L 53.1,302.0 L 54.1,296.7 L 57.5,295.8 L 61.4,297.6 L 64.8,294.9 L 65.2,292.0 L 68.3,289.8 L 70.5,289.0 L 72.3,287.2 L 73.6,283.2 L 74.9,280.8 L 72.5,280.2 L 70.3,279.6 L 71.3,275.4 L 73.9,269.1 L 78.6,271.2 L 83.2,282.7 L 85.7,279.8 L 87.3,279.4 L 89.0,279.0 L 90.5,276.5 L 90.2,276.0 L 91.1,273.4 L 90.6,269.9 L 91.8,268.1 L 88.6,267.9 L 84.5,268.6 L 82.6,269.8 L 82.3,267.6 L 84.4,265.2 L 85.3,263.8 L 89.6,261.1 L 90.6,261.5 L 94.4,261.7 L 94.9,260.1 L 96.2,259.4 L 100.6,259.1 L 101.7,258.0 L 104.4,257.9 L 105.5,259.9 L 107.2,258.7 L 107.7,257.1 L 111.7,255.5 L 115.9,256.2 L 119.7,255.1 L 123.7,257.0 L 126.8,259.5 L 133.4,258.8 L 145.1,256.4 L 146.6,254.6 L 147.0,254.3 L 147.9,253.6 L 151.2,251.9 L 153.8,253.3 L 155.8,256.4 L 155.5,255.1 L 157.1,251.1 L 161.3,249.7 L 165.1,249.3 L 166.1,253.0 L 165.1,257.8 L 166.8,257.1 L 167.0,251.7 L 166.2,248.5 L 163.9,245.5 L 164.6,242.2 L 166.9,240.6 L 169.9,239.6 L 169.7,237.2 L 168.6,233.9 L 169.9,230.2 L 170.7,227.2 L 165.4,230.4 L 163.4,230.3 L 162.3,225.6 L 164.9,224.7 L 169.1,220.4 L 171.6,217.1 L 173.8,218.3 L 174.5,216.8 L 176.3,217.6 L 175.6,219.5 L 177.3,220.0 L 179.2,219.2 L 180.2,219.6 L 179.8,221.7 L 181.7,222.1 L 184.3,222.4 L 184.8,220.5 L 186.9,220.7 L 186.4,222.9 L 188.4,223.7 L 192.3,225.6 L 198.0,226.5 L 204.3,230.2 L 210.4,237.1 L 213.3,232.9 L 211.9,229.7 L 210.8,228.6 L 214.7,226.9 L 215.1,222.3 L 220.3,217.3 L 221.9,215.3 L 224.9,215.6 L 228.0,214.2 L 230.9,212.3 L 233.5,210.8 L 235.6,209.7 L 239.1,206.8 L 238.5,204.0 L 237.4,202.2 L 234.7,201.3 L 233.1,201.0 L 231.4,202.4 L 228.0,204.2 L 225.7,202.7 L 222.1,203.9 L 220.5,203.6 L 218.6,202.8 L 220.3,199.9 L 219.2,197.5 L 219.9,194.2 L 220.5,193.1 L 222.1,192.6 L 226.1,192.9 L 227.2,190.5 L 226.9,187.8 L 229.6,184.5 L 226.9,182.1 L 226.4,180.5 L 226.1,179.6 L 224.6,176.6 L 223.4,174.8 L 195.7,168.2 L 193.5,163.8 L 195.6,161.8 L 199.0,153.9 L 197.2,150.5 L 196.3,150.6 L 194.1,152.7 L 192.7,150.5 L 193.2,146.4 L 196.3,143.1 L 197.9,139.1 L 199.7,136.1 L 198.5,136.1 L 196.7,134.9 L 195.2,134.0 L 192.9,130.1 L 192.1,126.2 L 190.6,125.2 L 190.2,121.7 L 190.5,118.4 L 190.5,116.0 L 191.4,113.4 L 192.4,110.6 L 194.6,108.7 L 196.2,106.7 L 196.8,105.1 L 198.4,103.7 L 200.6,104.2 L 202.6,102.9 L 218.0,68.4 L 219.3,69.2 L 221.3,74.6 L 222.3,75.6 L 224.2,73.2 L 225.2,70.3 L 225.6,68.6 L 226.1,67.0 L 225.5,65.2 L 223.8,63.5 L 223.2,59.1 L 224.3,54.7 L 220.6,53.6 L 248.9,46.3 L 260.9,34.7 L 264.0,35.6 L 269.8,31.8 L 271.1,35.1 L 273.5,37.4 L 274.5,38.0 L 274.6,40.3 L 282.8,38.1 L 282.2,40.3 L 284.9,43.5 L 289.3,47.5 L 289.3,50.0 L 290.4,52.5 L 289.7,56.5 L 291.0,59.3 L 288.1,61.0 L 287.9,63.1 L 289.3,69.6 L 286.4,69.5 L 285.0,70.1 L 285.0,73.0 L 281.9,72.3 L 278.1,72.0 L 273.8,72.4 L 271.8,74.9 L 269.9,74.3 L 268.2,74.5 L 266.5,76.4 L 265.5,77.1 L 264.4,77.8 L 263.4,78.6 L 262.6,78.8 L 257.9,86.0 L 258.2,89.3 L 260.1,89.4 L 261.6,92.1 L 263.2,93.9 L 263.6,95.8 L 266.0,98.0 L 266.6,100.5 L 267.0,102.9 L 267.4,103.9 L 259.8,112.7 L 256.5,121.7 L 255.4,131.2 L 255.6,135.6 L 255.5,138.7 L 256.9,146.3 L 258.7,148.7 L 257.3,152.7 L 253.7,153.4 L 251.3,148.6 L 250.1,147.6 L 247.5,143.8 L 244.9,142.8 L 240.8,141.7 L 235.9,141.5 L 236.5,144.0 L 238.7,146.5 L 236.6,152.0 L 235.1,157.8 L 238.4,156.9 L 238.5,158.5 L 238.7,160.2 L 242.8,162.4 L 243.7,164.9 L 245.4,167.4 L 247.8,167.9 L 250.6,170.4 L 252.8,172.2 L 257.5,170.1 L 261.8,171.0 L 263.3,173.1 L 262.2,180.3 L 265.5,184.8 L 269.3,183.5 L 270.6,182.1 L 272.3,182.0 L 274.5,176.3 L 274.0,174.6 L 272.6,173.6 L 272.0,170.5 L 272.7,168.4 L 271.7,165.7 L 269.8,164.2 L 269.8,162.8 L 270.1,161.9 L 271.0,158.9 L 273.5,153.8 L 281.8,149.0 L 283.8,147.6 L 287.9,145.8 L 294.1,144.7 L 295.3,145.6 L 293.6,147.8 L 294.4,148.3 L 296.2,146.7 L 299.3,145.7 L 301.5,143.8 L 305.3,142.6 L 306.5,140.0 L 307.3,138.7 L 307.2,136.7 L 306.6,133.8 L 309.5,128.4 L 315.0,124.1 L 317.7,117.7 L 321.4,114.7 L 322.9,112.2 L 325.4,108.9 L 329.9,104.0 L 333.0,98.0 L 334.0,95.2 L 337.3,93.7 L 340.7,91.3 L 343.5,92.4 L 345.3,89.8 L 347.8,88.7 L 351.3,86.8 L 355.4,87.6 L 358.1,89.7 L 359.8,89.3 L 361.9,87.3 L 362.3,85.5 L 362.6,84.0 L 363.8,83.1 L 364.3,81.2 L 365.9,80.5 L 366.3,79.0 L 367.3,76.8 L 368.3,76.4 L 368.7,74.8 L 370.0,74.4 L 370.3,73.2 L 371.5,72.5 L 372.7,72.8 L 374.4,72.7 L 375.4,73.0 L 376.9,71.7 L 381.1,72.7 L 384.1,75.7 L 386.7,79.9 L 392.6,83.7 L 397.1,86.8 L 403.4,88.1 L 409.9,89.2 L 413.8,90.2 L 415.9,93.4 L 411.4,98.3 L 405.9,101.7 L 400.7,112.6 L 395.4,125.7 L 381.9,123.4 L 363.8,118.8 L 346.4,129.6 L 339.6,141.8 L 346.5,146.6 L 349.4,144.6 L 336.6,156.4 L 322.3,167.4 L 317.2,172.8 L 316.4,177.5 L 297.3,185.6 L 294.4,189.0 L 289.1,191.2 L 283.8,192.9 L 284.6,197.4 L 281.2,209.7 L 262.9,221.4 L 258.4,226.0 L 256.2,228.6 L 247.9,229.0 L 239.2,230.9 L 220.6,242.2 L 211.2,243.3 L 195.4,253.6 L 183.4,263.5 L 176.5,258.8 L 165.7,265.5 L 164.3,259.6 L 154.3,259.0 L 150.2,268.0 L 153.9,277.3 L 162.1,283.4 L 158.7,296.8 L 154.2,305.0 L 136.8,314.7 L 121.0,320.4 L 114.6,309.1 L 111.9,307.9 L 99.9,303.3 L 91.7,312.1 L 94.6,317.9 L 99.5,318.2 L 110.3,330.0 L 102.6,340.2 L 92.4,351.7 L 76.6,359.9 L 73.9,359.0 L 64.2,367.4 L 60.2,367.5 L 57.1,367.4 L 58.4,363.7 L 60.4,361.0 L 59.5,359.3 L 53.3,356.6 L 56.7,355.0 L 56.1,353.0 L 53.6,352.6 L 50.8,352.5 L 48.9,354.5 L 46.0,355.3 L 46.7,352.4 L 44.8,351.5 L 45.3,348.7 L 46.5,350.2 L 48.3,350.4 L 48.2,347.7 L 47.2,345.5 L 49.0,344.3 L 46.6,342.9 L 45.7,341.5 L 44.3,341.8 L 45.8,340.0 L 42.9,339.9 L 41.6,338.6 L 40.6,337.9 L 39.0,339.2 L 37.7,337.4 L 38.9,336.8 L 37.5,334.3 L 35.7,332.9 L 36.3,331.9 L 35.8,331.3 L 34.9,331.3 L 34.5,327.7 L 34.1,324.6 Z" stroke="#1E3D8C" stroke-width="2" fill="#1E3D8C" fill-opacity="0.12" />
  <path d="M 34.1,324.6 L 37.2,322.0 L 39.4,318.5 L 38.3,315.9 L 38.9,312.4 L 36.9,310.0 L 40.1,308.3 L 41.4,308.4 L 51.8,309.9 L 53.1,302.0 L 54.1,296.7 L 57.5,295.8 L 61.4,297.6 L 64.8,294.9 L 65.2,292.0 L 68.3,289.8 L 70.5,289.0 L 72.3,287.2 L 73.6,283.2 L 74.9,280.8 L 72.5,280.2 L 70.3,279.6 L 71.3,275.4 L 73.9,269.1 L 78.6,271.2 L 83.2,282.7 L 85.7,279.8 L 87.3,279.4 L 89.0,279.0 L 90.5,276.5 L 90.2,276.0 L 91.1,273.4 L 90.6,269.9 L 91.8,268.1 L 88.6,267.9 L 84.5,268.6 L 82.6,269.8 L 82.3,267.6 L 84.4,265.2 L 85.3,263.8 L 89.6,261.1 L 90.6,261.5 L 94.4,261.7 L 94.9,260.1 L 96.2,259.4 L 100.6,259.1 L 101.7,258.0 L 104.4,257.9 L 105.5,259.9 L 107.2,258.7 L 107.7,257.1 L 111.7,255.5 L 115.9,256.2 L 119.7,255.1 L 123.7,257.0 L 126.8,259.5 L 133.4,258.8 L 145.1,256.4 L 146.6,254.6 L 147.0,254.3 L 147.9,253.6 L 151.2,251.9 L 153.8,253.3 L 155.8,256.4 L 155.5,255.1 L 157.1,251.1 L 161.3,249.7 L 165.1,249.3 L 166.1,253.0 L 165.1,257.8 L 166.8,257.1 L 167.0,251.7 L 166.2,248.5 L 163.9,245.5 L 164.6,242.2 L 166.9,240.6 L 169.9,239.6 L 169.7,237.2 L 168.6,233.9 L 169.9,230.2 L 170.7,227.2 L 165.4,230.4 L 163.4,230.3 L 162.3,225.6 L 164.9,224.7 L 169.1,220.4 L 171.6,217.1 L 173.8,218.3 L 174.5,216.8 L 176.3,217.6 L 175.6,219.5 L 177.3,220.0 L 179.2,219.2 L 180.2,219.6 L 179.8,221.7 L 181.7,222.1 L 184.3,222.4 L 184.8,220.5 L 186.9,220.7 L 186.4,222.9 L 188.4,223.7 L 192.3,225.6 L 198.0,226.5 L 204.3,230.2 L 210.4,237.1 L 213.3,232.9 L 211.9,229.7 L 210.8,228.6 L 214.7,226.9 L 215.1,222.3 L 220.3,217.3 L 221.9,215.3 L 224.9,215.6 L 228.0,214.2 L 230.9,212.3 L 233.5,210.8 L 235.6,209.7 L 239.1,206.8 L 238.5,204.0 L 237.4,202.2 L 234.7,201.3 L 233.1,201.0 L 231.4,202.4 L 228.0,204.2 L 225.7,202.7 L 222.1,203.9 L 220.5,203.6 L 218.6,202.8 L 220.3,199.9 L 219.2,197.5 L 219.9,194.2 L 220.5,193.1 L 222.1,192.6 L 226.1,192.9 L 227.2,190.5 L 226.9,187.8 L 229.6,184.5 L 226.9,182.1 L 226.4,180.5 L 226.1,179.6 L 224.6,176.6 L 223.4,174.8 L 195.7,168.2 L 193.5,163.8 L 195.6,161.8 L 199.0,153.9 L 197.2,150.5 L 196.3,150.6 L 194.1,152.7 L 192.7,150.5 L 193.2,146.4 L 196.3,143.1 L 197.9,139.1 L 199.7,136.1 L 198.5,136.1 L 196.7,134.9 L 195.2,134.0 L 192.9,130.1 L 192.1,126.2 L 190.6,125.2 L 190.2,121.7 L 190.5,118.4 L 190.5,116.0 L 191.4,113.4 L 192.4,110.6 L 194.6,108.7 L 196.2,106.7 L 196.8,105.1 L 198.4,103.7 L 200.6,104.2 L 202.6,102.9 L 218.0,68.4 L 219.3,69.2 L 221.3,74.6 L 222.3,75.6 L 224.2,73.2 L 225.2,70.3 L 225.6,68.6 L 226.1,67.0 L 225.5,65.2 L 223.8,63.5 L 223.2,59.1 L 224.3,54.7 L 220.6,53.6 L 248.9,46.3 L 260.9,34.7 L 264.0,35.6 L 269.8,31.8 L 271.1,35.1 L 273.5,37.4 L 274.5,38.0 L 274.6,40.3 L 282.8,38.1 L 282.2,40.3 L 284.9,43.5 L 289.3,47.5 L 289.3,50.0 L 290.4,52.5 L 289.7,56.5 L 291.0,59.3 L 288.1,61.0 L 287.9,63.1 L 289.3,69.6 L 286.4,69.5 L 285.0,70.1 L 285.0,73.0 L 281.9,72.3 L 278.1,72.0 L 273.8,72.4 L 271.8,74.9 L 269.9,74.3 L 268.2,74.5 L 266.5,76.4 L 265.5,77.1 L 264.4,77.8 L 263.4,78.6 L 262.6,78.8 L 257.9,86.0 L 258.2,89.3 L 260.1,89.4 L 261.6,92.1 L 263.2,93.9 L 263.6,95.8 L 266.0,98.0 L 266.6,100.5 L 267.0,102.9 L 267.4,103.9 L 259.8,112.7 L 256.5,121.7 L 255.4,131.2 L 255.6,135.6 L 255.5,138.7 L 256.9,146.3 L 258.7,148.7 L 257.3,152.7 L 253.7,153.4 L 251.3,148.6 L 250.1,147.6 L 247.5,143.8 L 244.9,142.8 L 240.8,141.7 L 235.9,141.5 L 236.5,144.0 L 238.7,146.5 L 236.6,152.0 L 235.1,157.8 L 238.4,156.9 L 238.5,158.5 L 238.7,160.2 L 242.8,162.4 L 243.7,164.9 L 245.4,167.4 L 247.8,167.9 L 250.6,170.4 L 252.8,172.2 L 257.5,170.1 L 261.8,171.0 L 263.3,173.1 L 262.2,180.3 L 265.5,184.8 L 269.3,183.5 L 270.6,182.1 L 272.3,182.0 L 274.5,176.3 L 274.0,174.6 L 272.6,173.6 L 272.0,170.5 L 272.7,168.4 L 271.7,165.7 L 269.8,164.2 L 269.8,162.8 L 270.1,161.9 L 271.0,158.9 L 273.5,153.8 L 281.8,149.0 L 283.8,147.6 L 287.9,145.8 L 294.1,144.7 L 295.3,145.6 L 293.6,147.8 L 294.4,148.3 L 296.2,146.7 L 299.3,145.7 L 301.5,143.8 L 305.3,142.6 L 306.5,140.0 L 307.3,138.7 L 307.2,136.7 L 306.6,133.8 L 309.5,128.4 L 315.0,124.1 L 317.7,117.7 L 321.4,114.7 L 322.9,112.2 L 325.4,108.9 L 329.9,104.0 L 333.0,98.0 L 334.0,95.2 L 337.3,93.7 L 340.7,91.3 L 343.5,92.4 L 345.3,89.8 L 347.8,88.7 L 351.3,86.8 L 355.4,87.6 L 358.1,89.7 L 359.8,89.3 L 361.9,87.3 L 362.3,85.5 L 362.6,84.0 L 363.8,83.1 L 364.3,81.2 L 365.9,80.5 L 366.3,79.0 L 367.3,76.8 L 368.3,76.4 L 368.7,74.8 L 370.0,74.4 L 370.3,73.2 L 371.5,72.5 L 372.7,72.8 L 374.4,72.7 L 375.4,73.0 L 376.9,71.7 L 381.1,72.7 L 384.1,75.7 L 386.7,79.9 L 392.6,83.7 L 397.1,86.8 L 403.4,88.1 L 409.9,89.2 L 413.8,90.2 L 415.9,93.4 L 411.4,98.3 L 405.9,101.7 L 400.7,112.6 L 395.4,125.7 L 381.9,123.4 L 363.8,118.8 L 346.4,129.6 L 339.6,141.8 L 346.5,146.6 L 349.4,144.6 L 336.6,156.4 L 322.3,167.4 L 317.2,172.8 L 316.4,177.5 L 297.3,185.6 L 294.4,189.0 L 289.1,191.2 L 283.8,192.9 L 284.6,197.4 L 281.2,209.7 L 262.9,221.4 L 258.4,226.0 L 256.2,228.6 L 247.9,229.0 L 239.2,230.9 L 220.6,242.2 L 211.2,243.3 L 195.4,253.6 L 183.4,263.5 L 176.5,258.8 L 165.7,265.5 L 164.3,259.6 L 154.3,259.0 L 150.2,268.0 L 153.9,277.3 L 162.1,283.4 L 158.7,296.8 L 154.2,305.0 L 136.8,314.7 L 121.0,320.4 L 114.6,309.1 L 111.9,307.9 L 99.9,303.3 L 91.7,312.1 L 94.6,317.9 L 99.5,318.2 L 110.3,330.0 L 102.6,340.2 L 92.4,351.7 L 76.6,359.9 L 73.9,359.0 L 64.2,367.4 L 60.2,367.5 L 57.1,367.4 L 58.4,363.7 L 60.4,361.0 L 59.5,359.3 L 53.3,356.6 L 56.7,355.0 L 56.1,353.0 L 53.6,352.6 L 50.8,352.5 L 48.9,354.5 L 46.0,355.3 L 46.7,352.4 L 44.8,351.5 L 45.3,348.7 L 46.5,350.2 L 48.3,350.4 L 48.2,347.7 L 47.2,345.5 L 49.0,344.3 L 46.6,342.9 L 45.7,341.5 L 44.3,341.8 L 45.8,340.0 L 42.9,339.9 L 41.6,338.6 L 40.6,337.9 L 39.0,339.2 L 37.7,337.4 L 38.9,336.8 L 37.5,334.3 L 35.7,332.9 L 36.3,331.9 L 35.8,331.3 L 34.9,331.3 L 34.5,327.7 L 34.1,324.6 Z" stroke="#D72638" stroke-width="1" stroke-dasharray="4,3" fill="none" opacity="0.5" />
  
  <circle cx="271.3" cy="184.8" r="4" fill="#D72638" />
  <text x="271.3" y="176.8" text-anchor="middle" fill="#1E3D8C" font-size="14" font-weight="600" font-family="system-ui, sans-serif">Charleston</text>
  <circle cx="109.7" cy="276.1" r="4" fill="#D72638" />
  <text x="109.7" y="268.1" text-anchor="middle" fill="#1E3D8C" font-size="12" font-weight="500" font-family="system-ui, sans-serif">Beaufort</text>
  <circle cx="286.6" cy="169.1" r="4" fill="#D72638" />
  <text x="286.6" y="161.1" text-anchor="middle" fill="#1E3D8C" font-size="10" font-weight="400" font-family="system-ui, sans-serif">Mt. Pleasant</text>
  <circle cx="216.7" cy="122.2" r="4" fill="#D72638" />
  <text x="216.7" y="114.2" text-anchor="middle" fill="#1E3D8C" font-size="10" font-weight="400" font-family="system-ui, sans-serif">Summerville</text>
  <text x="225" y="392" text-anchor="middle" fill="#1E3D8C" font-size="11" font-weight="600" font-family="system-ui, sans-serif" opacity="0.6">South Carolina Congressional District 1</text>
</svg>